<?xml version="1.0" encoding="UTF-8"?>
<svg width="14.97528px" height="15.36px" viewBox="0 0 14.97528 15.36" version="1.1" xmlns="http://www.w3.org/2000/svg" xmlns:xlink="http://www.w3.org/1999/xlink">
    <title>icon_sun</title>
    <g id="Timesheet" stroke="none" stroke-width="1" fill="none" fill-rule="evenodd">
        <g id="Timesheet-" transform="translate(-732, -250)" fill="#A365A6" fill-rule="nonzero">
            <g id="icon_sun" transform="translate(732, 250)">
                <polygon id="Path" points="10.65969 2.82588 10.8117 0.75651 9.30045 2.16138 9.68007 3.12777"></polygon>
                <ellipse id="Oval" transform="translate(7.4857, 7.6807) rotate(-9.208) translate(-7.4857, -7.6807)" cx="7.48574766" cy="7.6807212" rx="3.99199884" ry="3.99202884"></ellipse>
                <polygon id="Path" points="5.29557 3.12777 5.67273 2.16756 4.15548 0.76056 4.30956 2.82393"></polygon>
                <path d="M8.63769,2.92749 L7.48782,1.70974346e-14 L6.33795,2.92749 C6.70686,2.83821 7.09185,2.79057 7.48782,2.79057 C7.88379,2.79057 8.26878,2.83821 8.63769,2.92749 Z" id="Path"></path>
                <path d="M14.97528,9.38895 L12.37644,7.61607 C12.37671,7.63737 12.37725,7.65864 12.37725,7.68 C12.37725,8.46243 12.19221,9.20235 11.86407,9.85878 L14.97528,9.38895 Z" id="Path"></path>
                <path d="M11.91993,5.61678 L13.49229,2.89161 L10.48374,3.8187 C11.09406,4.2933 11.58921,4.90917 11.91993,5.61678 Z" id="Path"></path>
                <polygon id="Path" points="12.41373 6.55569 13.26144 7.134 14.97357 5.96346 12.93207 5.65731"></polygon>
                <polygon id="Path" points="6.73377 13.43187 7.4925 15.36 8.24673 13.43637 7.48782 12.7326"></polygon>
                <path d="M4.15557,14.59944 L6.46179,12.46077 C5.68779,12.29484 4.98114,11.94534 4.38996,11.45997 L4.15557,14.59944 Z" id="Path"></path>
                <path d="M8.51382,12.4608 L10.82004,14.59947 L10.58568,11.46 C9.9945,11.94537 9.28782,12.29484 8.51382,12.4608 Z" id="Path"></path>
                <polygon id="Path" points="11.4381 10.83024 11.51457 11.85468 13.49619 12.46353 12.4626 10.67553"></polygon>
                <path d="M4.4919,3.8187 L1.48332,2.89158 L3.05571,5.61678 C3.38643,4.9092 3.88158,4.29333 4.4919,3.8187 Z" id="Path"></path>
                <polygon id="Path" points="2.56191 6.55569 2.0469 5.66307 -7.33635375e-13 5.97264 1.70868 7.13775"></polygon>
                <polygon id="Path" points="1.4853 12.47091 3.46059 11.86131 3.53757 10.83024 2.51961 10.67652"></polygon>
                <path d="M2.59839,7.68 C2.59839,7.65861 2.59893,7.63737 2.5992,7.61604 L0.00039,9.38895 L3.1116,9.85878 C2.78343,9.20235 2.59839,8.46243 2.59839,7.68 L2.59839,7.68 Z" id="Path"></path>
            </g>
        </g>
    </g>
</svg>