<?xml version="1.0" encoding="UTF-8"?>
<svg width="14px" height="14.0000068px" viewBox="0 0 14 14.0000068" version="1.1" xmlns="http://www.w3.org/2000/svg" xmlns:xlink="http://www.w3.org/1999/xlink">
    <title>icon_refresh</title>
    <g id="Timesheet" stroke="none" stroke-width="1" fill="none" fill-rule="evenodd">
        <g id="Timesheet-" transform="translate(-1308, -103)" fill="#3CA2B9" fill-rule="nonzero">
            <path d="M1322,108.451635 L1321.9734,108.187381 L1322,108.187381 C1321.9888,108.147467 1321.9734,108.10893 1321.9622,108.069017 L1321.4918,103.298669 L1319.928,104.836026 C1318.61691,103.653016 1316.90141,102.997678 1315.1218,103 C1311.18854,103 1308,106.134628 1308,110.001379 C1308.00154,113.865444 1311.18707,116.997721 1315.1176,117 C1318.34106,117.001375 1321.16372,114.874456 1322,111.814001 L1319.802,111.814001 C1319.04512,113.704968 1317.18885,114.948484 1315.1218,114.949273 C1312.33828,114.949273 1310.0818,112.730944 1310.0818,109.994497 C1310.0818,107.258051 1312.33828,105.039722 1315.1218,105.039722 C1316.34704,105.038357 1317.53018,105.479124 1318.4468,106.278416 L1316.7584,107.938266 L1322,108.451635 Z" id="icon_refresh"></path>
        </g>
    </g>
</svg>