<?xml version="1.0" encoding="UTF-8"?>
<svg width="14px" height="14px" viewBox="0 0 14 14" version="1.1" xmlns="http://www.w3.org/2000/svg" xmlns:xlink="http://www.w3.org/1999/xlink">
    <title>icon_sick</title>
    <g id="Timesheet" stroke="none" stroke-width="1" fill="none" fill-rule="evenodd">
        <g id="Timesheet-" transform="translate(-364, -596.0081)" fill="#FFBE00" fill-rule="nonzero">
            <g id="icon_sick" transform="translate(364, 596.0081)">
                <path d="M10.443125,0.794063042 C9.386125,-0.262936958 7.667625,-0.266436958 6.610625,0.794063042 L3.957625,3.44706304 L7.793625,7.28306304 L10.443125,4.62656304 C11.500125,3.56606304 11.500125,1.85106304 10.443125,0.794063042 Z M7.723625,2.36206304 L6.516125,3.55206304 L6.512625,3.55556304 C6.372625,3.69206304 6.152125,3.68856304 6.019125,3.54856304 C5.882625,3.40856304 5.886125,3.18806304 6.026125,3.05506304 L7.237125,1.86506304 L7.240625,1.86156304 C7.380625,1.72506304 7.601125,1.72856304 7.734125,1.86856304 C7.867125,2.00506304 7.863625,2.22906304 7.723625,2.36206304 Z" id="Shape"></path>
                <path d="M3.460625,3.94056304 L0.790125,6.61456304 C-0.263375,7.67506304 -0.263375,9.38656304 0.790125,10.447063 C1.857625,11.500563 3.576125,11.500563 4.643625,10.447063 L7.300125,7.78006304 L3.460625,3.94056304 Z" id="Path"></path>
                <path d="M13.005125,9.21156304 L9.228625,12.991563 C10.303125,13.814063 11.818625,13.716063 12.774125,12.760563 C13.733125,11.805063 13.831125,10.286063 13.005125,9.21156304 Z" id="Path"></path>
                <path d="M10.870125,8.16156304 C9.382625,8.16156304 8.175125,9.36556304 8.175125,10.856563 C8.175125,11.451563 8.371125,12.029063 8.731625,12.498063 L12.508125,8.72156304 C12.039125,8.35756304 11.465125,8.16156304 10.870125,8.16156304 Z" id="Path"></path>
            </g>
        </g>
    </g>
</svg>