<?xml version="1.0" encoding="UTF-8"?>
<svg width="13.9999623px" height="13.9993734px" viewBox="0 0 13.9999623 13.9993734" version="1.1" xmlns="http://www.w3.org/2000/svg" xmlns:xlink="http://www.w3.org/1999/xlink">
    <title>icon_search-small</title>
    <g id="Timesheet" stroke="none" stroke-width="1" fill="none" fill-rule="evenodd" opacity="0.8">
        <g id="Timesheet-" transform="translate(-406.9999, -33.9999)" fill="#6B7386">
            <path d="M420.743095,46.5740557 L416.910095,42.7395557 C417.597165,41.8024594 417.965226,40.6695322 417.960095,39.5075557 C417.946985,36.4744115 415.493717,34.0175744 412.460595,34 C411.009075,33.9934884 409.615216,34.5677123 408.589531,35.5948065 C407.563845,36.6219006 406.991535,38.0165463 407,39.4680557 C407.013204,42.5014761 409.466697,44.958537 412.500095,44.9760557 C413.666805,44.9811124 414.803871,44.6087552 415.741595,43.9145557 L415.745595,43.9115557 L419.575095,47.7430557 C419.782144,47.9602692 420.09066,48.0481921 420.38111,47.9727584 C420.671559,47.8973248 420.898302,47.6703873 420.973487,47.3798737 C421.048672,47.0893602 420.960485,46.7809186 420.743095,46.5740557 L420.743095,46.5740557 Z M412.496095,43.8780933 C410.069509,43.8640967 408.106747,41.8986584 408.096025,39.4720557 C408.089545,38.3109985 408.547431,37.1955061 409.367825,36.3738915 C410.188219,35.5522768 411.303029,35.0927328 412.464095,35.0975181 C414.890681,35.1115147 416.853442,37.076953 416.864164,39.5035557 C416.870644,40.6646129 416.412758,41.7801053 415.592364,42.60172 C414.771971,43.4233346 413.65716,43.8828786 412.496095,43.8780933 Z" id="icon_search-small"></path>
        </g>
    </g>
</svg>