<?xml version="1.0" encoding="UTF-8"?>
<svg width="14px" height="9px" viewBox="0 0 14 9" version="1.1" xmlns="http://www.w3.org/2000/svg" xmlns:xlink="http://www.w3.org/1999/xlink">
    <title>icon_couch</title>
    <g id="Timesheet" stroke="none" stroke-width="1" fill="none" fill-rule="evenodd">
        <g id="Timesheet-" transform="translate(-977, -254)" fill="#264754" fill-rule="nonzero">
            <g id="icon_couch" transform="translate(977, 254)">
                <path d="M2.986676,4.163432 L2.986676,5.376028 L10.154676,5.376028 L10.154676,4.163432 C10.154676,3.386908 10.656436,2.729832 11.349352,2.481948 L11.349352,1.194676 C11.349352,0.5376 10.811752,6.59028387e-14 10.154676,6.59028387e-14 L2.986676,6.59028387e-14 C2.3296,6.59028387e-14 1.792,0.5376 1.792,1.194676 L1.792,2.48192 C2.484916,2.729832 2.986676,3.38688 2.986676,4.163432 Z" id="Path"></path>
                <path d="M11.946676,2.986676 C11.286604,2.986676 10.752,3.52128 10.752,4.181352 L10.752,5.973352 L2.389324,5.973352 L2.389324,4.181352 C2.389324,3.52128 1.85472,2.986676 1.194676,2.986676 C0.534604,2.986676 4.60076421e-14,3.52128 4.60076421e-14,4.181352 L4.60076421e-14,7.168028 C4.60076421e-14,7.825076 0.5376,8.362676 1.194676,8.362676 L11.946676,8.362676 C12.603752,8.362676 13.141352,7.825076 13.141352,7.168 L13.141352,4.181352 C13.141352,3.52128 12.60672,2.986676 11.946676,2.986676 Z" id="Path"></path>
            </g>
        </g>
    </g>
</svg>