<?xml version="1.0" encoding="UTF-8"?>
<svg width="87px" height="74px" viewBox="0 0 87 74" version="1.1" xmlns="http://www.w3.org/2000/svg" xmlns:xlink="http://www.w3.org/1999/xlink">
    <title>logo_gt-big</title>
    <g id="Dashboard/Menu" stroke="none" stroke-width="1" fill="none" fill-rule="evenodd">
        <g id="Dashboard---empty-states" transform="translate(-57.000000, -68.000000)" fill="#3CA2B9">
            <g id="logo_gt-big" transform="translate(57.000000, 68.000000)">
                <path d="M72.89442,41.511 L72.89442,20.0676 L85.78272,20.0676 L85.78272,10.6797 L72.89442,10.6797 L72.89442,0 L60.00822,0.7389 L60.00822,10.6797 L53.47872,10.6797 L53.47872,20.0676 L60.01092,20.0676 L60.01092,47.04 C60.01092,55.4988 65.07222,59.9229 74.55342,59.9229 C77.68422,59.9229 80.99832,59.2785 85.78272,57.6249 L86.24202,48.5088 C83.84952,49.4295 81.73122,49.9776 79.98642,49.9776 C74.64102,49.9776 72.89442,48.3249 72.89442,41.511" id="Fill-1"></path>
                <path d="M22.3623,35.98605 C15.9261,35.98605 12.1527,32.85885 12.1527,27.79455 C12.1527,21.44535 17.214,18.96045 22.827,18.96045 C28.6317,18.96045 33.1401,22.27785 33.1401,27.33975 C33.1323,31.56975 30.3783,35.98605 22.3623,35.98605 M21.6345,9.57615 C8.4678,9.57615 0,16.66455 0,27.79455 C0,34.79235 2.9448,40.77405 12.057,43.72065 L12.057,43.90455 C7.3578,44.72985 2.7564,47.12355 2.7564,51.91185 C2.7564,56.33175 4.7106,57.79695 9.2961,59.09385 C13.8792,60.39075 26.1936,61.04415 30.3627,61.58445 C41.3472,63.02565 33.5247,73.21035 33.5247,73.21035 L45.888,73.21035 C47.6562,70.39965 48.4185,67.44555 48.4185,64.97895 C48.4185,56.70015 43.8138,53.20125 35.5266,52.27995 L19.6092,50.52645 C17.214,50.25435 16.197,49.60995 16.197,47.95635 C16.197,46.48275 17.7663,45.37815 19.3329,45.37815 L23.9316,45.37815 C34.6062,45.37815 44.1828,40.13355 44.1828,28.81155 C44.1828,24.66405 42.5238,21.35505 41.0502,19.50975 L49.3398,19.50975 L49.3398,10.67535 L31.7541,10.67535 C28.44,10.12125 25.5885,9.57615 21.6345,9.57615" id="Fill-4"></path>
            </g>
        </g>
    </g>
</svg>